<svg width="250" height="36" viewBox="0 0 250 36" fill="none" xmlns="http://www.w3.org/2000/svg">
<path fill-rule="evenodd" clip-rule="evenodd" d="M78.7729 0.0305176V11.4971H80.5426C80.8873 9.37021 82.8523 6.7521 87.3225 6.7521C94.1541 6.7521 98.4231 12.3351 98.4231 19.4034V20.1432C98.4231 27.2578 94.1483 32.8466 87.3225 32.8466C82.8523 32.8466 80.9333 30.2285 80.5426 28.1016H78.7729V32.153H74.8429V0.0305176H78.7729ZM86.5353 29.4367C91.3502 29.4367 94.3954 25.8303 94.3954 20.149V19.4092C94.3954 13.728 91.3502 10.2198 86.5353 10.2198C81.7205 10.2198 78.7729 13.728 78.7729 19.4092V20.149C78.7729 25.8303 81.6228 29.4367 86.5353 29.4367Z" fill="black"/>
<path fill-rule="evenodd" clip-rule="evenodd" d="M58.3586 6.7521C62.8287 6.7521 64.7938 9.37021 65.1385 11.4971H66.9082V7.44564H70.8382V32.153H66.9082V28.1016H65.1385C64.7478 30.2285 62.8287 32.8466 58.3586 32.8466C51.527 32.8466 47.258 27.2636 47.258 20.1432V19.4034C47.258 12.3351 51.5328 6.7521 58.3586 6.7521ZM59.1458 29.4367C64.0583 29.4367 66.9082 25.8303 66.9082 20.149V19.4092C66.9082 13.728 64.0583 10.2198 59.1458 10.2198C54.2332 10.2198 51.2857 13.728 51.2857 19.4092V20.149C51.2857 25.8303 54.3309 29.4367 59.1458 29.4367Z" fill="black"/>
<path d="M118.401 25.3795C118.401 28.0951 115.26 29.5803 112.066 29.5812C108.723 29.5804 105.237 28.2449 104.157 24.1427H100.227C101.164 29.3789 105.536 32.8408 111.529 32.8408C117.522 32.8408 122.336 30.3152 122.336 25.5239C122.336 20.334 118.165 18.9526 114.183 18.2591C113.35 18.1146 110.943 17.6696 110.253 17.5193C106.668 16.7275 105.439 15.8433 105.439 13.9129C105.439 11.341 108.288 9.95972 110.793 9.95972C113.149 9.95972 116.194 10.6012 117.079 14.9012H121.009C120.073 9.36444 115.896 6.74632 110.788 6.74632C105.68 6.74632 101.698 10.3065 101.698 14.1614C101.698 18.0164 104.841 20.2877 109.656 21.0795L113.143 21.6748C116.585 22.2643 118.401 23.1544 118.401 25.3795Z" fill="black"/>
<path d="M129.157 7.44563C130.386 7.44563 130.731 7.09886 130.731 5.86205V0.0305176H134.661V7.44563H146.847V10.9076H134.661V28.3039H146.847V32.1588H134.219C132.305 32.1588 130.731 30.5752 130.731 28.6507V10.9076H123.262V7.44563H129.157Z" fill="black"/>
<path d="M157.063 10.9018V28.2519H149.6V32.1531H172.197V28.2519H160.993V19.993C160.993 13.5719 166.348 9.61873 172.295 11.4451V6.99483C167.285 6.00654 163.498 9.81524 162.763 12.5316H160.993V7.43985H151.364V10.9018H157.063Z" fill="black"/>
<path fill-rule="evenodd" clip-rule="evenodd" d="M184.775 6.7521C189.245 6.7521 191.21 9.37021 191.555 11.4971H193.324V7.44564H197.254V32.153H193.324V28.1016H191.555C191.164 30.2285 189.245 32.8466 184.775 32.8466C177.943 32.8466 173.674 27.2636 173.674 20.1432V19.4034C173.674 12.3351 177.949 6.7521 184.775 6.7521ZM185.562 29.4367C190.474 29.4367 193.324 25.8303 193.324 20.149V19.4092C193.324 13.728 190.474 10.2198 185.562 10.2198C180.649 10.2198 177.702 13.728 177.702 19.4092V20.149C177.702 25.8303 180.747 29.4367 185.562 29.4367Z" fill="black"/>
<path d="M224.276 15.745C223.046 10.5088 219.162 6.7521 212.629 6.7521L212.635 6.74632C204.821 6.74632 200.696 12.2831 200.696 19.3977V20.1374C200.696 27.2578 204.821 32.8408 212.635 32.8408C219.024 32.8408 222.903 29.2806 224.23 24.1427H220.151C218.921 27.5526 216.272 29.4771 212.635 29.4771C207.82 29.4771 204.626 25.8187 204.626 20.1374V19.3977C204.626 13.6702 207.82 10.11 212.635 10.11C216.364 10.11 219.07 12.2369 220.248 15.745H224.276Z" fill="black"/>
<path d="M231.843 7.44563C233.072 7.44563 233.417 7.09886 233.417 5.86205V0.0305176H237.347V7.44563H249.534V10.9076H237.347V28.3039H249.534V32.1588H236.905C234.992 32.1588 233.417 30.5752 233.417 28.6507V10.9076H225.948V7.44563H231.843Z" fill="black"/>
<path d="M31.5666 32.2686L24.195 24.8535H12.5543L5.18258 32.2686L8.64147 35.7479L16.0131 28.3328C16.6452 27.6971 17.4783 27.3503 18.3746 27.3503C19.2709 27.3503 20.1041 27.6971 20.7361 28.3328L28.1077 35.7479L31.5666 32.2686Z" fill="black"/>
<path d="M25.4245 22.7151L35.4909 25.4257L36.755 20.6692L26.6886 17.9586C25.8267 17.7274 25.1085 17.1726 24.6603 16.3923C24.2122 15.6179 24.0973 14.7105 24.3271 13.8436L27.0218 3.71784L22.2931 2.44635L19.5984 12.5721L25.4188 22.7093L25.4245 22.7151Z" fill="black"/>
<path d="M1.26404 25.4257L11.3304 22.7151L11.3362 22.7093L17.1565 12.5721L14.4618 2.44635L9.73314 3.71784L12.4279 13.8436C12.6577 14.7105 12.5428 15.6179 12.0946 16.3923C11.6464 17.1726 10.9282 17.7274 10.0664 17.9586L0 20.6692L1.26404 25.4257Z" fill="black"/>
</svg>
